<svg width="230" height="181" viewBox="0 0 230 181" fill="none" xmlns="http://www.w3.org/2000/svg">
<rect x="135" y="115" width="44" height="11" rx="1" fill="#342C2A"/>
<path d="M93.6731 111.285C94.4331 109.805 95.0897 108.282 95.6431 106.715C97.9164 100.289 100.38 93.6652 103.033 86.8452C112.84 61.6252 122.603 35.9919 132.323 9.9452C133.323 7.2652 135.073 1.5252 137.703 0.1352C138.03 -0.0381331 138.36 -0.0448002 138.693 0.1152C140.993 1.2652 142.783 5.4552 143.643 7.7252C149.67 23.6519 156.033 40.4785 162.733 58.2052C172.233 83.3519 182.59 110.585 193.803 139.905C195.75 144.992 197.706 149.875 199.673 154.555C201.746 159.489 204.236 164.125 207.143 168.465C209.976 172.692 213.763 175.222 218.503 176.055C222.003 176.669 225.33 177.222 228.483 177.715C228.718 177.75 228.937 177.854 229.115 178.014C229.292 178.174 229.42 178.383 229.483 178.615C229.61 179.069 229.436 179.359 228.963 179.485C226.576 180.112 224.293 180.399 222.113 180.345C206.286 179.972 190.193 179.835 173.833 179.935C173.64 179.935 173.463 179.869 173.303 179.735C172.63 179.175 172.616 178.602 173.263 178.015C174.11 177.235 175.003 176.502 175.943 175.815C178.073 174.255 176.743 171.095 176.063 169.195C162.763 132.315 149.193 95.1252 137.003 57.5452C136.073 54.6852 134.663 52.0452 134.173 49.0952C134.138 48.8871 134.049 48.6914 133.916 48.5277C133.783 48.3641 133.61 48.2381 133.413 48.1622C133.217 48.0864 133.005 48.0634 132.798 48.0955C132.591 48.1276 132.396 48.2137 132.233 48.3452C131.44 48.9719 130.883 49.7952 130.563 50.8152C130.05 52.4085 129.543 53.9485 129.043 55.4352C118.583 86.3085 108.656 114.505 99.2631 140.025C97.9364 143.645 96.5531 147.299 95.1131 150.985C91.5997 159.965 85.8564 167.109 77.8831 172.415C74.5231 174.649 71.2997 176.269 68.2131 177.275C66.5064 177.835 66.2131 177.412 67.3331 176.005C71.3331 170.965 74.1264 165.095 75.7131 158.395C76.8931 153.409 77.0864 148.729 76.2931 144.355C75.2864 138.789 73.6197 134.029 71.2931 130.075C66.4664 121.875 59.5464 114.499 50.5331 107.945C42.2998 101.952 34.8864 96.2752 28.2931 90.9152C14.8931 80.0152 5.04308 67.2252 1.12308 50.7452C-2.52692 35.4452 2.83308 19.6352 15.5531 10.6752C21.5231 6.4752 28.7531 3.1752 36.1031 2.1752C39.4231 1.7252 42.6431 0.8152 45.9931 0.6152C55.1631 0.0451998 62.8831 1.6252 71.6631 2.7252C75.5764 3.21853 79.2564 4.18853 82.7031 5.6352C83.6764 6.04187 84.1797 6.77187 84.2131 7.8252C84.5464 18.0452 84.8564 28.3552 85.1431 38.7552C85.1764 39.9819 84.7864 41.0019 83.9731 41.8152C83.9151 41.8731 83.8449 41.9173 83.7677 41.9445C83.6904 41.9718 83.6081 41.9815 83.5266 41.9729C83.4452 41.9642 83.3667 41.9375 83.2968 41.8947C83.227 41.8518 83.1677 41.7939 83.1231 41.7252C82.3897 40.5985 81.8731 39.3452 81.5731 37.9652C81.0031 35.3552 80.0131 33.0952 79.0631 30.6252C76.1831 23.1052 67.9931 14.6352 59.3731 12.7052C54.2464 11.5652 49.1764 11.1485 44.1631 11.4552C38.2564 11.8085 33.4698 13.3519 29.8031 16.0852C24.8298 19.7852 22.1297 25.1452 21.7031 32.1652C21.2531 39.5152 24.5931 46.5052 29.6431 51.9752C34.0898 56.7819 38.5631 60.8152 43.0631 64.0752C50.7098 69.6219 58.5364 75.4219 66.5431 81.4752C71.4031 85.1452 75.7031 89.5952 80.0831 93.8652C85.3231 98.9752 89.0731 105.185 92.9731 111.315C93.2198 111.709 93.4531 111.699 93.6731 111.285Z" fill="#342C2A"/>
</svg>
