<svg width="429" height="101" viewBox="0 0 429 101" fill="none" xmlns="http://www.w3.org/2000/svg">
<rect x="67.3685" y="63.3882" width="21.9571" height="5.48928" rx="1" fill="white"/>
<path d="M46.7453 61.5342C47.1245 60.7956 47.4522 60.0354 47.7283 59.2536C48.8628 56.0465 50.0921 52.7413 51.4161 49.338C56.3099 36.7526 61.1821 23.9609 66.0326 10.9629C66.5316 9.62552 67.4049 6.76111 68.7174 6.06747C68.8804 5.98097 69.045 5.97764 69.2114 6.05749C70.3591 6.63137 71.2524 8.72228 71.6816 9.85507C74.689 17.8029 77.8645 26.1998 81.208 35.0459C85.9487 47.5947 91.1169 61.1848 96.7127 75.8163C97.6841 78.3547 98.6605 80.7916 99.642 83.127C100.677 85.5889 101.919 87.9027 103.37 90.0685C104.784 92.1777 106.673 93.4402 109.039 93.856C110.785 94.1621 112.445 94.4382 114.019 94.6844C114.136 94.702 114.245 94.7539 114.334 94.8336C114.423 94.9134 114.487 95.0176 114.518 95.1336C114.581 95.3598 114.495 95.5045 114.258 95.5677C113.067 95.8804 111.928 96.0235 110.84 95.9969C102.942 95.8106 94.9112 95.7424 86.7471 95.7923C86.6507 95.7923 86.5625 95.759 86.4827 95.6925C86.1467 95.413 86.14 95.1269 86.4627 94.8341C86.8852 94.4449 87.331 94.0789 87.8001 93.7363C88.863 92.9578 88.1993 91.3809 87.86 90.4327C81.2229 72.0287 74.4512 53.4699 68.368 34.7165C67.9039 33.2893 67.2003 31.9719 66.9558 30.4998C66.9383 30.3959 66.8941 30.2983 66.8276 30.2166C66.7611 30.1349 66.6746 30.072 66.5767 30.0342C66.4788 29.9963 66.373 29.9848 66.2696 30.0009C66.1663 30.0169 66.0691 30.0599 65.9877 30.1255C65.5918 30.4382 65.314 30.8491 65.1543 31.3581C64.8981 32.1532 64.6453 32.9217 64.3958 33.6636C59.176 49.0702 54.2223 63.141 49.5348 75.8762C48.8728 77.6826 48.1825 79.5057 47.4639 81.3455C45.7106 85.8267 42.8445 89.3914 38.8656 92.0396C37.1889 93.1541 35.5804 93.9625 34.0401 94.4649C33.1884 94.7443 33.042 94.5331 33.6009 93.8311C35.597 91.316 36.991 88.3867 37.7828 85.0433C38.3716 82.5548 38.4681 80.2193 38.0722 78.0369C37.5698 75.259 36.7381 72.8837 35.5771 70.9109C33.1684 66.8188 29.7152 63.1377 25.2173 59.8674C21.1087 56.8766 17.4092 54.0438 14.119 51.369C7.43203 45.9296 2.51663 39.5471 0.560448 31.3232C-1.261 23.6881 1.41378 15.7985 7.76139 11.3272C10.7406 9.23129 14.3485 7.58451 18.0164 7.08548C19.6731 6.86092 21.28 6.40681 22.9517 6.307C27.5278 6.02256 31.3803 6.81102 35.7617 7.35994C37.7146 7.60613 39.551 8.09019 41.2709 8.81211C41.7567 9.01505 42.0078 9.37933 42.0245 9.90497C42.1908 15.005 42.3455 20.15 42.4886 25.3398C42.5052 25.952 42.3106 26.461 41.9047 26.8669C41.8758 26.8957 41.8408 26.9178 41.8022 26.9314C41.7637 26.945 41.7226 26.9498 41.6819 26.9455C41.6413 26.9412 41.6021 26.9279 41.5672 26.9065C41.5324 26.8851 41.5028 26.8562 41.4805 26.8219C41.1146 26.2597 40.8568 25.6343 40.7071 24.9456C40.4226 23.6431 39.9286 22.5154 39.4545 21.2828C38.0173 17.5301 33.9303 13.3033 29.6287 12.3402C27.0703 11.7713 24.5403 11.5634 22.0385 11.7164C19.0909 11.8928 16.7023 12.6629 14.8725 14.0269C12.3907 15.8733 11.0433 18.5481 10.8304 22.0513C10.6058 25.7191 12.2726 29.2073 14.7927 31.937C17.0117 34.3356 19.244 36.3483 21.4896 37.9752C25.3055 40.7431 29.2112 43.6374 33.2067 46.6582C35.632 48.4896 37.7778 50.7103 39.9635 52.8411C42.5784 55.3912 44.4497 58.4901 46.3959 61.5491C46.519 61.7454 46.6355 61.7404 46.7453 61.5342Z" fill="white"/>
<path d="M135.52 39.48C133.307 39.48 131.16 39.1867 129.08 38.6C127.027 37.9867 125.373 37.2 124.12 36.24L126.32 31.36C127.52 32.24 128.947 32.9467 130.6 33.48C132.253 34.0133 133.907 34.28 135.56 34.28C137.4 34.28 138.76 34.0133 139.64 33.48C140.52 32.92 140.96 32.1867 140.96 31.28C140.96 30.6133 140.693 30.0667 140.16 29.64C139.653 29.1867 138.987 28.8267 138.16 28.56C137.36 28.2933 136.267 28 134.88 27.68C132.747 27.1733 131 26.6667 129.64 26.16C128.28 25.6533 127.107 24.84 126.12 23.72C125.16 22.6 124.68 21.1067 124.68 19.24C124.68 17.6133 125.12 16.1467 126 14.84C126.88 13.5067 128.2 12.4533 129.96 11.68C131.747 10.9067 133.92 10.52 136.48 10.52C138.267 10.52 140.013 10.7333 141.72 11.16C143.427 11.5867 144.92 12.2 146.2 13L144.2 17.92C141.613 16.4533 139.027 15.72 136.44 15.72C134.627 15.72 133.28 16.0133 132.4 16.6C131.547 17.1867 131.12 17.96 131.12 18.92C131.12 19.88 131.613 20.6 132.6 21.08C133.613 21.5333 135.147 21.9867 137.2 22.44C139.333 22.9467 141.08 23.4533 142.44 23.96C143.8 24.4667 144.96 25.2667 145.92 26.36C146.907 27.4533 147.4 28.9333 147.4 30.8C147.4 32.4 146.947 33.8667 146.04 35.2C145.16 36.5067 143.827 37.5467 142.04 38.32C140.253 39.0933 138.08 39.48 135.52 39.48ZM169.668 39L164.268 31.2H163.948H158.308V39H151.828V11H163.948C166.428 11 168.574 11.4133 170.388 12.24C172.228 13.0667 173.641 14.24 174.628 15.76C175.614 17.28 176.108 19.08 176.108 21.16C176.108 23.24 175.601 25.04 174.588 26.56C173.601 28.0533 172.188 29.2 170.348 30L176.628 39H169.668ZM169.548 21.16C169.548 19.5867 169.041 18.3867 168.028 17.56C167.014 16.7067 165.534 16.28 163.588 16.28H158.308V26.04H163.588C165.534 26.04 167.014 25.6133 168.028 24.76C169.041 23.9067 169.548 22.7067 169.548 21.16ZM206.282 11V39H200.002V35.6C198.082 38.1867 195.255 39.48 191.522 39.48C188.215 39.48 185.629 38.44 183.762 36.36C181.922 34.2533 181.002 31.2667 181.002 27.4V11H187.482V27.2C187.482 29.44 188.002 31.1333 189.042 32.28C190.109 33.4 191.549 33.96 193.362 33.96C195.309 33.96 196.869 33.36 198.042 32.16C199.215 30.9333 199.802 29.1333 199.802 26.76V11H206.282ZM222.122 39.48C219.908 39.48 217.762 39.1867 215.682 38.6C213.628 37.9867 211.975 37.2 210.722 36.24L212.922 31.36C214.122 32.24 215.548 32.9467 217.202 33.48C218.855 34.0133 220.508 34.28 222.162 34.28C224.002 34.28 225.362 34.0133 226.242 33.48C227.122 32.92 227.562 32.1867 227.562 31.28C227.562 30.6133 227.295 30.0667 226.762 29.64C226.255 29.1867 225.588 28.8267 224.762 28.56C223.962 28.2933 222.868 28 221.482 27.68C219.348 27.1733 217.602 26.6667 216.242 26.16C214.882 25.6533 213.708 24.84 212.722 23.72C211.762 22.6 211.282 21.1067 211.282 19.24C211.282 17.6133 211.722 16.1467 212.602 14.84C213.482 13.5067 214.802 12.4533 216.562 11.68C218.348 10.9067 220.522 10.52 223.082 10.52C224.868 10.52 226.615 10.7333 228.322 11.16C230.028 11.5867 231.522 12.2 232.802 13L230.802 17.92C228.215 16.4533 225.628 15.72 223.042 15.72C221.228 15.72 219.882 16.0133 219.002 16.6C218.148 17.1867 217.722 17.96 217.722 18.92C217.722 19.88 218.215 20.6 219.202 21.08C220.215 21.5333 221.748 21.9867 223.802 22.44C225.935 22.9467 227.682 23.4533 229.042 23.96C230.402 24.4667 231.562 25.2667 232.522 26.36C233.508 27.4533 234.002 28.9333 234.002 30.8C234.002 32.4 233.548 33.8667 232.642 35.2C231.762 36.5067 230.428 37.5467 228.642 38.32C226.855 39.0933 224.682 39.48 222.122 39.48ZM264.109 11V39H257.629V27.52H244.909V39H238.429V11H244.909V22.04H257.629V11H264.109ZM291.134 18.84C288.734 17.4533 286.161 16.56 283.414 16.16V39H276.934V16.16C274.187 16.56 271.601 17.4533 269.174 18.84L266.974 14C268.894 12.8533 270.974 11.9867 273.214 11.4C275.454 10.8133 277.761 10.52 280.134 10.52C282.534 10.52 284.854 10.8133 287.094 11.4C289.361 11.9867 291.441 12.8533 293.334 14L291.134 18.84ZM305.842 16.2V33.8H310.682V39H294.482V33.8H299.362V16.2H294.482V11H310.682V16.2H305.842Z" fill="white"/>
<path d="M138.92 62.52C141.507 62.52 143.76 63.0267 145.68 64.04C147.6 65.0533 149.093 66.5467 150.16 68.52C151.227 70.4933 151.76 72.88 151.76 75.68V91H145.28V84.28H132.48V91H126.08V75.68C126.08 72.88 126.613 70.4933 127.68 68.52C128.747 66.5467 130.24 65.0533 132.16 64.04C134.08 63.0267 136.333 62.52 138.92 62.52ZM145.28 79.08V75.08C145.28 72.76 144.707 71.0133 143.56 69.84C142.413 68.64 140.853 68.04 138.88 68.04C136.88 68.04 135.307 68.64 134.16 69.84C133.04 71.0133 132.48 72.76 132.48 75.08V79.08H145.28ZM170.276 63C172.756 63 174.903 63.4133 176.716 64.24C178.556 65.0667 179.969 66.24 180.956 67.76C181.943 69.28 182.436 71.08 182.436 73.16C182.436 75.2133 181.943 77.0133 180.956 78.56C179.969 80.08 178.556 81.2533 176.716 82.08C174.903 82.88 172.756 83.28 170.276 83.28H164.636V91H158.156V63H170.276ZM169.916 78C171.863 78 173.343 77.5867 174.356 76.76C175.369 75.9067 175.876 74.7067 175.876 73.16C175.876 71.5867 175.369 70.3867 174.356 69.56C173.343 68.7067 171.863 68.28 169.916 68.28H164.636V78H169.916ZM199.272 62.52C201.858 62.52 204.112 63.0267 206.032 64.04C207.952 65.0533 209.445 66.5467 210.512 68.52C211.578 70.4933 212.112 72.88 212.112 75.68V91H205.632V84.28H192.832V91H186.432V75.68C186.432 72.88 186.965 70.4933 188.032 68.52C189.098 66.5467 190.592 65.0533 192.512 64.04C194.432 63.0267 196.685 62.52 199.272 62.52ZM205.632 79.08V75.08C205.632 72.76 205.058 71.0133 203.912 69.84C202.765 68.64 201.205 68.04 199.232 68.04C197.232 68.04 195.658 68.64 194.512 69.84C193.392 71.0133 192.832 72.76 192.832 75.08V79.08H205.632ZM236.348 91L230.948 83.2H230.628H224.988V91H218.508V63H230.628C233.108 63 235.254 63.4133 237.068 64.24C238.908 65.0667 240.321 66.24 241.308 67.76C242.294 69.28 242.788 71.08 242.788 73.16C242.788 75.24 242.281 77.04 241.268 78.56C240.281 80.0533 238.868 81.2 237.028 82L243.308 91H236.348ZM236.228 73.16C236.228 71.5867 235.721 70.3867 234.708 69.56C233.694 68.7067 232.214 68.28 230.268 68.28H224.988V78.04H230.268C232.214 78.04 233.694 77.6133 234.708 76.76C235.721 75.9067 236.228 74.7067 236.228 73.16ZM268.322 70.84C265.922 69.4533 263.348 68.56 260.602 68.16V91H254.122V68.16C251.375 68.56 248.788 69.4533 246.362 70.84L244.162 66C246.082 64.8533 248.162 63.9867 250.402 63.4C252.642 62.8133 254.948 62.52 257.322 62.52C259.722 62.52 262.042 62.8133 264.282 63.4C266.548 63.9867 268.628 64.8533 270.522 66L268.322 70.84ZM305.389 62.52C308.696 62.52 311.269 63.4933 313.109 65.44C314.949 67.36 315.869 70.1467 315.869 73.8V91H309.389V74C309.389 72.0267 308.869 70.5467 307.829 69.56C306.816 68.5467 305.469 68.04 303.789 68.04C301.949 68.04 300.483 68.5733 299.389 69.64C298.296 70.68 297.749 72.2667 297.749 74.4V91H291.269V74C291.269 72.0267 290.789 70.5467 289.829 69.56C288.869 68.5467 287.563 68.04 285.909 68.04C284.096 68.04 282.643 68.5733 281.549 69.64C280.456 70.68 279.909 72.2667 279.909 74.4V91H273.429V63H279.709V66.44C280.563 65.1867 281.696 64.2267 283.109 63.56C284.523 62.8667 286.149 62.52 287.989 62.52C289.909 62.52 291.589 62.88 293.029 63.6C294.469 64.2933 295.576 65.3067 296.349 66.64C297.309 65.3067 298.563 64.2933 300.109 63.6C301.683 62.88 303.443 62.52 305.389 62.52ZM345.138 88.6C343.804 89.5067 342.124 90.2133 340.098 90.72C338.098 91.2267 335.964 91.48 333.698 91.48C330.871 91.48 328.471 91.1333 326.498 90.44C324.524 89.72 323.031 88.7333 322.018 87.48C321.004 86.2 320.498 84.7467 320.498 83.12C320.498 81.6267 320.911 80.3067 321.738 79.16C322.564 78.0133 323.698 77.16 325.138 76.6C324.044 76.0133 323.191 75.2133 322.578 74.2C321.991 73.1867 321.698 72.0533 321.698 70.8C321.698 69.28 322.164 67.8933 323.098 66.64C324.031 65.3867 325.444 64.3867 327.338 63.64C329.231 62.8933 331.551 62.52 334.298 62.52C336.111 62.52 337.884 62.7067 339.618 63.08C341.351 63.4267 342.858 63.9067 344.138 64.52L342.338 69.48C339.884 68.3333 337.284 67.76 334.538 67.76C332.458 67.76 330.884 68.08 329.818 68.72C328.778 69.3333 328.258 70.1733 328.258 71.24C328.258 72.2267 328.604 72.9867 329.298 73.52C330.018 74.0267 331.098 74.28 332.538 74.28H340.178V79.4H332.138C330.511 79.4 329.258 79.68 328.378 80.24C327.498 80.8 327.058 81.6133 327.058 82.68C327.058 83.8 327.618 84.68 328.738 85.32C329.884 85.9333 331.631 86.24 333.978 86.24C335.631 86.24 337.284 86.0267 338.938 85.6C340.591 85.1467 341.991 84.52 343.138 83.72L345.138 88.6ZM363.777 62.52C367.111 62.52 369.711 63.5733 371.577 65.68C373.444 67.76 374.377 70.7333 374.377 74.6V91H367.897V74.8C367.897 72.56 367.364 70.88 366.297 69.76C365.257 68.6133 363.804 68.04 361.937 68.04C359.964 68.04 358.377 68.6533 357.177 69.88C356.004 71.08 355.417 72.8667 355.417 75.24V91H348.937V63H355.217V66.4C356.177 65.12 357.377 64.16 358.817 63.52C360.257 62.8533 361.911 62.52 363.777 62.52ZM401.173 70.84C398.773 69.4533 396.2 68.56 393.453 68.16V91H386.973V68.16C384.226 68.56 381.64 69.4533 379.213 70.84L377.013 66C378.933 64.8533 381.013 63.9867 383.253 63.4C385.493 62.8133 387.8 62.52 390.173 62.52C392.573 62.52 394.893 62.8133 397.133 63.4C399.4 63.9867 401.48 64.8533 403.373 66L401.173 70.84ZM415.481 91.48C413.268 91.48 411.121 91.1867 409.041 90.6C406.988 89.9867 405.334 89.2 404.081 88.24L406.281 83.36C407.481 84.24 408.908 84.9467 410.561 85.48C412.214 86.0133 413.868 86.28 415.521 86.28C417.361 86.28 418.721 86.0133 419.601 85.48C420.481 84.92 420.921 84.1867 420.921 83.28C420.921 82.6133 420.654 82.0667 420.121 81.64C419.614 81.1867 418.948 80.8267 418.121 80.56C417.321 80.2933 416.228 80 414.841 79.68C412.708 79.1733 410.961 78.6667 409.601 78.16C408.241 77.6533 407.068 76.84 406.081 75.72C405.121 74.6 404.641 73.1067 404.641 71.24C404.641 69.6133 405.081 68.1467 405.961 66.84C406.841 65.5067 408.161 64.4533 409.921 63.68C411.708 62.9067 413.881 62.52 416.441 62.52C418.228 62.52 419.974 62.7333 421.681 63.16C423.388 63.5867 424.881 64.2 426.161 65L424.161 69.92C421.574 68.4533 418.988 67.72 416.401 67.72C414.588 67.72 413.241 68.0133 412.361 68.6C411.508 69.1867 411.081 69.96 411.081 70.92C411.081 71.88 411.574 72.6 412.561 73.08C413.574 73.5333 415.108 73.9867 417.161 74.44C419.294 74.9467 421.041 75.4533 422.401 75.96C423.761 76.4667 424.921 77.2667 425.881 78.36C426.868 79.4533 427.361 80.9333 427.361 82.8C427.361 84.4 426.908 85.8667 426.001 87.2C425.121 88.5067 423.788 89.5467 422.001 90.32C420.214 91.0933 418.041 91.48 415.481 91.48Z" fill="white"/>
</svg>
