<svg width="424" height="333" viewBox="0 0 424 333" fill="none" xmlns="http://www.w3.org/2000/svg">
<rect x="249.263" y="212.335" width="81.2414" height="20.3103" rx="1" fill="white"/>
<path d="M172.957 205.476C174.361 202.744 175.573 199.931 176.595 197.038C180.792 185.172 185.341 172.943 190.24 160.351C208.347 113.784 226.374 66.4552 244.321 18.3628C246.167 13.4144 249.398 2.81612 254.254 0.249633C254.857 -0.0704087 255.467 -0.0827189 256.082 0.212704C260.329 2.33606 263.634 10.0725 265.222 14.2638C276.349 43.6707 288.099 74.7394 300.469 107.47C318.01 153.9 337.133 204.184 357.837 258.32C361.431 267.712 365.044 276.729 368.675 285.37C372.504 294.479 377.101 303.04 382.468 311.053C387.699 318.857 394.691 323.529 403.443 325.067C409.905 326.2 416.048 327.222 421.87 328.132C422.303 328.198 422.708 328.389 423.036 328.684C423.364 328.98 423.6 329.365 423.716 329.794C423.95 330.631 423.63 331.167 422.756 331.401C418.349 332.558 414.134 333.087 410.108 332.988C380.886 332.299 351.172 332.047 320.964 332.231C320.608 332.231 320.281 332.108 319.986 331.862C318.743 330.828 318.718 329.77 319.912 328.686C321.475 327.246 323.125 325.892 324.86 324.624C328.793 321.744 326.337 315.909 325.082 312.401C300.525 244.306 275.469 175.639 252.962 106.251C251.245 100.97 248.641 96.096 247.736 90.6491C247.672 90.2648 247.508 89.9036 247.262 89.6014C247.016 89.2992 246.696 89.0665 246.334 88.9265C245.972 88.7864 245.58 88.7439 245.198 88.8032C244.815 88.8625 244.456 89.0215 244.154 89.2643C242.69 90.4214 241.662 91.9416 241.071 93.8249C240.123 96.7668 239.188 99.6103 238.264 102.355C218.951 159.36 200.623 211.422 183.279 258.542C180.829 265.226 178.275 271.971 175.616 278.778C169.129 295.359 158.525 308.548 143.803 318.347C137.599 322.47 131.647 325.461 125.948 327.32C122.797 328.354 122.255 327.572 124.323 324.975C131.709 315.669 136.867 304.831 139.796 292.46C141.975 283.253 142.332 274.612 140.867 266.537C139.008 256.258 135.931 247.47 131.635 240.17C122.723 225.03 109.946 211.409 93.304 199.309C78.102 188.243 64.4141 177.762 52.2402 167.865C27.4985 147.74 9.31152 124.124 2.07366 93.6957C-4.66568 65.4458 5.23099 36.2543 28.7171 19.7106C39.7401 11.9558 53.0895 5.86267 66.6605 4.01628C72.7906 3.1854 78.736 1.50518 84.9214 1.1359C101.853 0.0834567 116.107 3.00076 132.318 5.0318C139.544 5.94268 146.339 7.73369 152.703 10.4048C154.5 11.1557 155.429 12.5035 155.491 14.4484C156.106 33.3186 156.678 52.3549 157.208 71.5574C157.269 73.8223 156.549 75.7056 155.047 77.2074C154.94 77.3142 154.811 77.3958 154.668 77.4462C154.526 77.4965 154.374 77.5144 154.223 77.4985C154.073 77.4826 153.928 77.4332 153.799 77.3541C153.67 77.275 153.56 77.1681 153.478 77.0412C152.124 74.9609 151.17 72.6468 150.616 70.0987C149.564 65.2796 147.736 61.1068 145.982 56.5462C140.664 42.6613 125.542 27.0224 109.626 23.4588C100.16 21.3539 90.7991 20.5846 81.5425 21.1508C70.6364 21.8032 61.7984 24.6528 55.0283 29.6996C45.8455 36.5313 40.8603 46.428 40.0725 59.3897C39.2416 72.9607 45.4085 85.867 54.7328 95.9667C62.9431 104.842 71.2027 112.289 79.5114 118.308C93.6302 128.549 108.081 139.259 122.865 150.435C131.838 157.212 139.778 165.428 147.865 173.312C157.54 182.747 164.464 194.213 171.665 205.532C172.12 206.258 172.551 206.24 172.957 205.476Z" fill="white"/>
</svg>
